<?xml version="1.0" encoding="iso-8859-1"?>
<!-- Generator: Adobe Illustrator 18.1.1, SVG Export Plug-In . SVG Version: 6.00 Build 0)  -->
<svg version="1.1" id="Capa_1" xmlns="http://www.w3.org/2000/svg" xmlns:xlink="http://www.w3.org/1999/xlink" x="0px" y="0px"
	 viewBox="0 0 30.77 30.77" fill = "#959595" style="enable-background:new 0 0 30.77 30.77;" xml:space="preserve">
<g id="look">
	<path d="M15.385,25.047c-5.747,0-11.05-2.622-14.55-7.192c-1.113-1.454-1.113-3.484,0-4.938c3.5-4.571,8.804-7.193,14.55-7.193
		c5.747,0,11.051,2.622,14.551,7.193c1.112,1.453,1.112,3.483,0,4.937C26.436,22.424,21.132,25.047,15.385,25.047z M15.385,7.723
		c-5.118,0-9.843,2.336-12.962,6.41c-0.565,0.736-0.565,1.767,0,2.504c3.118,4.073,7.843,6.409,12.962,6.409
		c5.12,0,9.845-2.336,12.963-6.409c0.564-0.737,0.564-1.768,0-2.504C25.229,10.059,20.504,7.723,15.385,7.723z"/>
	<path d="M15.385,21.99c-3.642,0-6.604-2.963-6.604-6.604c0-3.643,2.963-6.605,6.604-6.605c3.643,0,6.605,2.963,6.605,6.605
		C21.99,19.027,19.027,21.99,15.385,21.99z M15.385,10.78c-2.539,0-4.604,2.066-4.604,4.605s2.065,4.604,4.604,4.604
		s4.605-2.065,4.605-4.604S17.924,10.78,15.385,10.78z"/>
	<path d="M15.385,18.266c-1.589,0-2.881-1.292-2.881-2.881s1.292-2.881,2.881-2.881s2.882,1.292,2.882,2.881
		S16.974,18.266,15.385,18.266z M15.385,14.505c-0.485,0-0.881,0.396-0.881,0.881s0.396,0.881,0.881,0.881
		c0.486,0,0.882-0.396,0.882-0.881S15.871,14.505,15.385,14.505z"/>
</g>
<g>
</g>
<g>
</g>
<g>
</g>
<g>
</g>
<g>
</g>
<g>
</g>
<g>
</g>
<g>
</g>
<g>
</g>
<g>
</g>
<g>
</g>
<g>
</g>
<g>
</g>
<g>
</g>
<g>
</g>
</svg>
