<?xml version="1.0" encoding="UTF-8"?>
<svg width="35px" height="35px" viewBox="0 0 35 35" version="1.1" xmlns="http://www.w3.org/2000/svg" xmlns:xlink="http://www.w3.org/1999/xlink">
    <!-- Generator: Sketch 44.1 (41455) - http://www.bohemiancoding.com/sketch -->
    <title>filter-icon</title>
    <desc>Created with Sketch.</desc>
    <defs></defs>
    <g id="Page-1" stroke="none" stroke-width="1" fill="none" fill-rule="evenodd">
        <g id="filter-icon" transform="translate(17.500000, 17.500000) rotate(-270.000000) translate(-17.500000, -17.500000) " fill-rule="nonzero">
            <g id="Group" transform="translate(3.240741, 0.000000)" fill="#C7CAC7">
                <path d="M0.648148148,0 C0.29037037,0 0,0.289722222 0,0.648148148 L0,26.5740741 C0,26.9325 0.29037037,27.2222222 0.648148148,27.2222222 C1.00592593,27.2222222 1.2962963,26.9325 1.2962963,26.5740741 L1.2962963,0.648148148 C1.2962963,0.289722222 1.00592593,0 0.648148148,0 Z" id="Shape"></path>
                <path d="M27.8703704,7.77777778 C27.5125926,7.77777778 27.2222222,8.0675 27.2222222,8.42592593 L27.2222222,34.3518519 C27.2222222,34.7102778 27.5125926,35 27.8703704,35 C28.2281481,35 28.5185185,34.7102778 28.5185185,34.3518519 L28.5185185,8.42592593 C28.5185185,8.0675 28.2281481,7.77777778 27.8703704,7.77777778 Z" id="Shape"></path>
                <path d="M14.2592593,0 C13.9014815,0 13.6111111,0.289722222 13.6111111,0.648148148 L13.6111111,12.962963 C13.6111111,13.3213889 13.9014815,13.6111111 14.2592593,13.6111111 C14.617037,13.6111111 14.9074074,13.3213889 14.9074074,12.962963 L14.9074074,0.648148148 C14.9074074,0.289722222 14.617037,0 14.2592593,0 Z" id="Shape"></path>
                <path d="M14.2592593,20.7407407 C13.9014815,20.7407407 13.6111111,21.030463 13.6111111,21.3888889 L13.6111111,34.3518519 C13.6111111,34.7102778 13.9014815,35 14.2592593,35 C14.617037,35 14.9074074,34.7102778 14.9074074,34.3518519 L14.9074074,21.3888889 C14.9074074,21.030463 14.617037,20.7407407 14.2592593,20.7407407 Z" id="Shape"></path>
            </g>
            <circle id="Oval" fill="#F48220" cx="3.88888889" cy="30.462963" r="3.88888889"></circle>
            <circle id="Oval" fill="#F48220" cx="17.3658333" cy="17.3658333" r="4.02305556"></circle>
            <circle id="Oval" fill="#F48220" cx="31.1111111" cy="4.53703704" r="3.88888889"></circle>
        </g>
    </g>
</svg>