<svg xmlns="http://www.w3.org/2000/svg" width="47" height="54" viewBox="0 0 47 54" xmlns:xlink="http://www.w3.org/1999/xlink">
  <defs>
    <path id="a" d="M46.134,3.67 L24.864,3.67 L24.864,3.15 C24.8573841,1.40484573 23.4381597,-0.00497980847 21.693,1.33226763e-15 L18,1.33226763e-15 C16.2552303,-0.00442690216 14.8366159,1.40523722 14.83,3.15 L14.83,3.67 L9.7,3.67 C9.4709678,3.66840004 9.25078073,3.75833222 9.08835781,3.91981628 C8.92593489,4.08130034 8.83472778,4.30096238 8.835,4.53 L8.835,11.46 L1.861,11.46 C1.3854448,11.4605377 0.999294538,11.8444559 0.996,12.32 L0.996,44.43 C0.996,44.45 0.996,44.48 0.996,44.51 C0.996,44.52 0.996,44.53 0.996,44.55 C0.996,44.57 0.996,44.58 1.003,44.59 C1.00413227,44.603789 1.00751011,44.6173004 1.013,44.63 C1.01571059,44.6468627 1.01938325,44.6635566 1.024,44.68 C1.024,44.69 1.032,44.7 1.037,44.71 C1.042,44.72 1.047,44.74 1.052,44.76 C1.057,44.78 1.063,44.78 1.068,44.79 C1.073,44.8 1.081,44.82 1.088,44.83 C1.095,44.84 1.101,44.85 1.108,44.86 C1.1133065,44.8747749 1.12146053,44.8883649 1.132,44.9 C1.13797595,44.9146693 1.1464328,44.9282002 1.157,44.94 L1.182,44.97 L1.235,45.03 L1.235,45.03 L9.997,53.75 L9.997,53.75 C10.0139753,53.7699937 10.034273,53.7869084 10.057,53.8 C10.0656667,53.81 10.0756667,53.82 10.087,53.83 C10.099,53.84 10.111,53.85 10.125,53.86 C10.1387561,53.8628467 10.1513157,53.8698242 10.161,53.88 C10.174826,53.8826563 10.1874403,53.8896643 10.197,53.9 C10.2113651,53.9027641 10.2245886,53.9097239 10.235,53.92 C10.248,53.92 10.26,53.93 10.274,53.93 C10.288,53.93 10.299,53.94 10.312,53.95 C10.325,53.96 10.339,53.96 10.354,53.96 C10.3650032,53.9678987 10.3785341,53.9714595 10.392,53.97 C10.4051608,53.9780986 10.4206316,53.9816147 10.436,53.98 C10.4491891,53.9880291 10.4646361,53.9915398 10.48,53.99 L10.519,53.99 C10.5465397,53.9982341 10.5753012,54.0016178 10.604,54 L35.968,54 C36.4433904,53.9994584 36.8292524,53.6153827 36.832,53.14 L36.832,49.41 L46.113,49.41 C46.3420322,49.4116 46.5622193,49.3216678 46.7246422,49.1601837 C46.8870651,48.9986997 46.9782722,48.7790376 46.978,48.55 L46.978,4.53 C46.9786175,4.060995 46.6029339,3.67818944 46.134,3.67 L46.134,3.67 Z M16.563,3.15 C16.5663073,2.3573082 17.2113061,1.71723301 18.004,1.72 L21.693,1.72 C22.4858575,1.71723188 23.1311426,2.35714708 23.135,3.15 L23.135,3.67 L16.563,3.67 L16.563,3.15 L16.563,3.15 L16.563,3.15 Z M16.563,13.18 L20.829,13.18 L20.829,17.43 L16.563,17.43 L16.563,13.18 L16.563,13.18 Z M20.538,19.15 C20.2632162,19.5073444 19.8387726,19.7177208 19.388,19.72 L18.005,19.72 C17.5538397,19.7181804 17.1289002,19.5077412 16.854,19.15 L20.538,19.15 L20.538,19.15 Z M10.568,5.39 L14.834,5.39 L14.834,11.46 L10.568,11.46 L10.568,5.39 Z M9.761,48.55 L9.761,51.06 L3.951,45.29 L9.761,45.29 L9.761,48.55 L9.761,48.55 Z M35.125,48.55 L35.125,52.28 L11.491,52.28 L11.491,44.43 C11.4910039,44.2010449 11.399711,43.9815393 11.2373466,43.8201136 C11.0749823,43.6586878 10.8549513,43.5686689 10.626,43.57 L2.726,43.57 L2.726,13.18 L14.826,13.18 L14.826,17.43 L7.851,17.43 C7.37603512,17.43 6.991,17.8150351 6.991,18.29 C6.991,18.7649649 7.37603512,19.15 7.851,19.15 L14.951,19.15 C15.3439785,20.5075651 16.5877013,21.4413766 18.001,21.44 L19.384,21.44 C20.7970401,21.4412662 22.040415,20.5074096 22.433,19.15 L30.452,19.15 C30.9269649,19.15 31.312,18.7649649 31.312,18.29 C31.312,17.8150351 30.9269649,17.43 30.452,17.43 L22.552,17.43 L22.552,13.18 L35.119,13.18 L35.119,48.55 L35.119,48.55 L35.125,48.55 Z M45.27,47.69 L36.854,47.69 L36.854,12.32 C36.8507055,11.8444559 36.4645552,11.4605377 35.989,11.46 L22.558,11.46 L22.558,7.28 C22.5421483,6.81398941 22.1597801,6.44440663 21.6935,6.44440663 C21.2272199,6.44440663 20.8448517,6.81398941 20.829,7.28 L20.829,11.46 L16.563,11.46 L16.563,5.39 L45.27,5.39 L45.27,47.69 L45.27,47.69 L45.27,47.69 Z M30.455,24.76 L7.855,24.76 C7.54775145,24.7599998 7.263842,24.9239148 7.11021767,25.1899998 C6.95659334,25.4560848 6.95659334,25.7839152 7.11021767,26.0500002 C7.263842,26.3160852 7.54775145,26.4800002 7.855,26.48 L30.455,26.48 C30.7622485,26.4800002 31.046158,26.3160852 31.1997823,26.0500002 C31.3534067,25.7839152 31.3534067,25.4560848 31.1997823,25.1899998 C31.046158,24.9239148 30.7622485,24.7599998 30.455,24.76 L30.455,24.76 Z M30.455,32.1 L7.855,32.1 C7.54775145,32.0999998 7.263842,32.2639148 7.11021767,32.5299998 C6.95659334,32.7960848 6.95659334,33.1239152 7.11021767,33.3900002 C7.263842,33.6560852 7.54775145,33.8200002 7.855,33.82 L30.455,33.82 C30.9299649,33.82 31.315,33.4349649 31.315,32.96 C31.315,32.4850351 30.9299649,32.1 30.455,32.1 L30.455,32.1 Z M30.455,39.44 L7.855,39.44 C7.54775145,39.4399998 7.263842,39.6039148 7.11021767,39.8699998 C6.95659334,40.1360848 6.95659334,40.4639152 7.11021767,40.7300002 C7.263842,40.9960852 7.54775145,41.1600002 7.855,41.16 L30.455,41.16 C30.9299649,41.16 31.315,40.7749649 31.315,40.3 C31.315,39.8250351 30.9299649,39.44 30.455,39.44 Z"/>
  </defs>
  <g fill="none" fill-rule="evenodd">
    <mask id="b" fill="white">
      <use xlink:href="#a"/>
    </mask>
    <use fill="#BEBEBE" xlink:href="#a"/>
    <circle cx="8" cy="9" r="32" fill="#0095DA" mask="url(#b)"/>
  </g>
</svg>
