<?xml version="1.0" encoding="UTF-8"?>
<svg width="30px" height="20px" viewBox="0 0 30 20" version="1.1" xmlns="http://www.w3.org/2000/svg" xmlns:xlink="http://www.w3.org/1999/xlink">
    <!-- Generator: Sketch 44.1 (41455) - http://www.bohemiancoding.com/sketch -->
    <title>bar</title>
    <desc>Created with Sketch.</desc>
    <defs></defs>
    <g id="Page-1" stroke="none" stroke-width="1" fill="none" fill-rule="evenodd">
        <g id="bar" fill-rule="nonzero" fill="#000000">
            <path d="M30,1 C30,0.4 29.5,0 28.75,0 L1.25,0 C0.5,0 0,0.4 0,1 L0,3 C0,3.6 0.5,4 1.25,4 L28.75,4 C29.5,4 30,3.6 30,3 L30,1 Z" id="Shape"></path>
            <path d="M30,9 C30,8.4 29.5,8 28.75,8 L1.25,8 C0.5,8 0,8.4 0,9 L0,11 C0,11.6 0.5,12 1.25,12 L28.75,12 C29.5,12 30,11.6 30,11 L30,9 Z" id="Shape"></path>
            <path d="M30,17 C30,16.4 29.5,16 28.75,16 L1.25,16 C0.5,16 0,16.4 0,17 L0,19 C0,19.6 0.5,20 1.25,20 L28.75,20 C29.5,20 30,19.6 30,19 L30,17 Z" id="Shape"></path>
        </g>
    </g>
</svg>