<svg xmlns="http://www.w3.org/2000/svg" width="50" height="54" viewBox="0 0 50 54" xmlns:xlink="http://www.w3.org/1999/xlink">
  <defs>
    <path id="a" d="M49.073,52.18 L47.53,52.18 L47.53,4.55 C47.5250517,4.04322774 47.1107815,3.63611559 46.604,3.64 L29.321,3.64 C28.8140525,3.63611289 28.3994956,4.04306739 28.394,4.55 L28.394,8.49 L26.542,8.49 L26.542,4.55 C26.5370516,4.04362083 26.1233924,3.6366696 25.617,3.64 L21.6,3.64 L21.6,0.91 C21.5835853,0.410698314 21.1740714,0.0144261401 20.6745,0.0144261401 C20.1749286,0.0144261401 19.7654147,0.410698314 19.749,0.91 L19.749,3.64 L15.74,3.64 C15.2334416,3.63666648 14.8194952,4.0434604 14.814,4.55 L14.814,8.49 L12.036,8.49 C11.5294416,8.48666648 11.1154952,8.8934604 11.11,9.4 L11.11,16.99 L3.394,16.99 C2.88744156,16.9866665 2.47349522,17.3934604 2.468,17.9 L2.468,52.18 L0.925,52.18 C0.422420878,52.18 0.015,52.5874209 0.015,53.09 C0.015,53.5925791 0.422420878,54 0.925,54 L49.073,54 C49.5755791,54 49.983,53.5925791 49.983,53.09 C49.983,52.5874209 49.5755791,52.18 49.073,52.18 L49.073,52.18 Z M16.666,5.46 L24.691,5.46 L24.691,8.49 L16.666,8.49 L16.666,5.46 Z M13.579,52.18 L12.963,52.18 L12.963,50.66 C12.9465762,50.1601524 12.5366173,49.7634426 12.0365,49.7634426 C11.5363827,49.7634426 11.1264238,50.1601524 11.11,50.66 L11.11,52.18 L10.493,52.18 L10.493,49.15 L13.579,49.15 L13.579,52.18 Z M19.753,28.82 L19.753,52.18 L15.432,52.18 L15.432,48.24 C15.4309569,47.9960171 15.3324083,47.7625785 15.1582956,47.5916588 C14.9841829,47.4207391 14.7489605,47.3265275 14.505,47.33 L9.567,47.33 C9.32321159,47.3267968 9.08824763,47.4211276 8.91435252,47.5920181 C8.74045742,47.7629085 8.64204596,47.9961928 8.641,48.24 L8.641,52.18 L4.32,52.18 L4.32,18.81 L19.753,18.81 L19.753,28.82 L19.753,28.82 L19.753,28.82 Z M20.678,16.99 L12.963,16.99 L12.963,10.31 L28.394,10.31 L28.394,27.91 L21.6,27.91 L21.6,24.88 L24.378,24.88 C24.7031118,24.8800002 25.0035275,24.7065552 25.1660835,24.4250001 C25.3286394,24.1434451 25.3286394,23.7965549 25.1660835,23.5149999 C25.0035275,23.2334448 24.7031118,23.0599998 24.378,23.06 L21.6,23.06 L21.6,20.02 L24.378,20.02 C24.8805791,20.02 25.288,19.6125791 25.288,19.11 C25.288,18.6074209 24.8805791,18.2 24.378,18.2 L21.6,18.2 L21.6,17.9 C21.595055,17.394797 21.1832244,16.9883265 20.678,16.99 L20.678,16.99 Z M37.036,52.18 L21.6,52.18 L21.6,29.73 L37.032,29.73 L37.032,52.18 L37.036,52.18 Z M45.679,52.18 L38.887,52.18 L38.887,27.61 C38.8705853,27.1106983 38.4610714,26.7144261 37.9615,26.7144261 C37.4619286,26.7144261 37.0524147,27.1106983 37.036,27.61 L37.036,27.91 L35.184,27.91 L35.184,27.61 C35.1675853,27.1106983 34.7580714,26.7144261 34.2585,26.7144261 C33.7589286,26.7144261 33.3494147,27.1106983 33.333,27.61 L33.333,27.91 L30.246,27.91 L30.246,5.46 L45.679,5.46 L45.679,52.18 L45.679,52.18 Z M25.616,50.36 C26.1227815,50.3638844 26.5370517,49.9567723 26.542,49.45 L26.542,32.46 C26.5255853,31.9606983 26.1160714,31.5644261 25.6165,31.5644261 C25.1169286,31.5644261 24.7074147,31.9606983 24.691,32.46 L24.691,49.45 C24.6964943,49.9561471 25.1098307,50.3627808 25.616,50.36 L25.616,50.36 Z M29.316,50.36 C29.8221693,50.3627808 30.2355057,49.9561471 30.241,49.45 L30.241,32.46 C30.241,31.9485843 29.8264157,31.534 29.315,31.534 C28.8035843,31.534 28.389,31.9485843 28.389,32.46 L28.389,49.45 C28.3916352,49.6943545 28.4913778,49.9276212 28.6662238,50.09834 C28.8410699,50.2690588 29.0766523,50.3632016 29.321,50.36 L29.316,50.36 Z M33.016,50.36 C33.5227815,50.3638844 33.9370517,49.9567723 33.942,49.45 L33.942,32.46 C33.942,31.9485843 33.5274157,31.534 33.016,31.534 C32.5045843,31.534 32.09,31.9485843 32.09,32.46 L32.09,49.45 C32.0926314,49.694706 32.1926492,49.92828 32.3679298,50.0990566 C32.5432105,50.2698333 32.7793084,50.3637382 33.024,50.36 L33.016,50.36 Z M34.25,11.53 C34.7567815,11.5338844 35.1710517,11.1267723 35.176,10.62 L35.176,9.4 C35.1595853,8.90069831 34.7500714,8.50442614 34.2505,8.50442614 C33.7509286,8.50442614 33.3414147,8.90069831 33.325,9.4 L33.325,10.62 C33.3273671,10.864615 33.4271634,11.0981918 33.6022855,11.2689969 C33.7774076,11.4398019 34.0134021,11.5337381 34.258,11.53 L34.25,11.53 Z M37.95,11.53 C38.4563924,11.5333304 38.8700516,11.1263792 38.875,10.62 L38.875,9.4 C38.8585853,8.90069831 38.4490714,8.50442614 37.9495,8.50442614 C37.4499286,8.50442614 37.0404147,8.90069831 37.024,9.4 L37.024,10.62 C37.0263516,10.8654975 37.1268351,11.0998477 37.3030461,11.2707987 C37.4792571,11.4417496 37.7165439,11.5350871 37.962,11.53 L37.95,11.53 Z M41.65,11.53 C42.1569475,11.5338871 42.5715044,11.1269326 42.577,10.62 L42.577,9.4 C42.577,8.88858432 42.1624157,8.474 41.651,8.474 C41.1395843,8.474 40.725,8.88858432 40.725,9.4 L40.725,10.62 C40.7276131,10.8657655 40.8284558,11.1002676 41.0050432,11.2712192 C41.1816305,11.4421707 41.419279,11.5353569 41.665,11.53 L41.65,11.53 Z M34.243,17.59 C34.4868679,17.593474 34.7219883,17.4992312 34.8959428,17.3282824 C35.0698972,17.1573337 35.1682233,16.9238914 35.169,16.68 L35.169,15.47 C35.1525853,14.9706983 34.7430714,14.5744261 34.2435,14.5744261 C33.7439286,14.5744261 33.3344147,14.9706983 33.318,15.47 L33.318,16.68 C33.3187018,16.9263733 33.4189456,17.1620054 33.5959603,17.3333707 C33.772975,17.504736 34.0117335,17.597287 34.258,17.59 L34.243,17.59 Z M37.943,17.59 C38.1866959,17.5932045 38.4215577,17.4988424 38.5952945,17.327923 C38.7690313,17.1570035 38.8672202,16.9237157 38.868,16.68 L38.868,15.47 C38.8515853,14.9706983 38.4420714,14.5744261 37.9425,14.5744261 C37.4429286,14.5744261 37.0334147,14.9706983 37.017,15.47 L37.017,16.68 C37.0176605,16.9272694 37.1185881,17.1636964 37.2967019,17.3352134 C37.4748157,17.5067304 37.7148817,17.5986675 37.962,17.59 L37.943,17.59 Z M41.643,17.59 C41.8869605,17.5934725 42.1221829,17.4992609 42.2962956,17.3283412 C42.4704083,17.1574215 42.5689569,16.9239829 42.57,16.68 L42.57,15.47 C42.57,14.9585843 42.1554157,14.544 41.644,14.544 C41.1325843,14.544 40.718,14.9585843 40.718,15.47 L40.718,16.68 C40.7186419,16.9276293 40.8198428,17.1643763 40.9983971,17.3359543 C41.1769514,17.5075324 41.4175416,17.5992225 41.665,17.59 L41.643,17.59 Z M34.236,23.66 C34.4798679,23.663474 34.7149883,23.5692312 34.8889428,23.3982824 C35.0628972,23.2273337 35.1612233,22.9938914 35.162,22.75 L35.162,21.54 C35.1455853,21.0406983 34.7360714,20.6444261 34.2365,20.6444261 C33.7369286,20.6444261 33.3274147,21.0406983 33.311,21.54 L33.311,22.75 C33.3116419,22.9976293 33.4128428,23.2343763 33.5913971,23.4059543 C33.7699514,23.5775324 34.0105416,23.6692225 34.258,23.66 L34.236,23.66 Z M37.936,23.66 C38.1796959,23.6632045 38.4145577,23.5688424 38.5882945,23.397923 C38.7620313,23.2270035 38.8602202,22.9937157 38.861,22.75 L38.861,21.54 C38.8445853,21.0406983 38.4350714,20.6444261 37.9355,20.6444261 C37.4359286,20.6444261 37.0264147,21.0406983 37.01,21.54 L37.01,22.75 C37.0105898,22.9985327 37.1124735,23.2360843 37.2921316,23.4078162 C37.4717896,23.5795482 37.7136935,23.6706171 37.962,23.66 L37.936,23.66 Z M41.636,23.66 C41.8799605,23.6634725 42.1151829,23.5692609 42.2892956,23.3983412 C42.4634083,23.2274215 42.5619569,22.9939829 42.563,22.75 L42.563,21.54 C42.563,21.0285843 42.1484157,20.614 41.637,20.614 C41.1255843,20.614 40.711,21.0285843 40.711,21.54 L40.711,22.75 C40.7115667,22.9988956 40.8137235,23.2367709 40.9938239,23.4085648 C41.1739243,23.5803588 41.4163549,23.6711778 41.665,23.66 L41.636,23.66 Z M8.304,26.09 C8.8103924,26.0933304 9.22405162,25.6863792 9.229,25.18 L9.229,23.97 C9.229,23.4585843 8.81441568,23.044 8.303,23.044 C7.79158432,23.044 7.377,23.4585843 7.377,23.97 L7.377,25.18 C7.37951168,25.4286268 7.48255033,25.6656507 7.66264438,25.8370791 C7.84273842,26.0085075 8.08455149,26.0997421 8.333,26.09 L8.304,26.09 Z M12.004,26.09 C12.5109475,26.0938871 12.9255044,25.6869326 12.931,25.18 L12.931,23.97 C12.9145762,23.4701524 12.5046173,23.0734426 12.0045,23.0734426 C11.5043827,23.0734426 11.0944238,23.4701524 11.078,23.97 L11.078,25.18 C11.0804935,25.4289881 11.1838063,25.6663321 11.364341,25.8378213 C11.5448757,26.0093104 11.7872124,26.1002973 12.036,26.09 L12.004,26.09 Z M15.704,26.09 C16.2105584,26.0933335 16.6245048,25.6865396 16.63,25.18 L16.63,23.97 C16.63,23.4585843 16.2154157,23.044 15.704,23.044 C15.1925843,23.044 14.778,23.4585843 14.778,23.97 L14.778,25.18 C14.7804535,25.4297134 14.8843141,25.6677009 15.0657317,25.8393122 C15.2471494,26.0109234 15.4905355,26.1014126 15.74,26.09 L15.704,26.09 Z M8.297,32.16 C8.8033924,32.1633304 9.21705162,31.7563792 9.222,31.25 L9.222,30.03 C9.222,29.5185843 8.80741568,29.104 8.296,29.104 C7.78458432,29.104 7.37,29.5185843 7.37,30.03 L7.37,31.25 C7.37244271,31.4998952 7.47644023,31.7380443 7.65807892,31.9096863 C7.83971761,32.0813282 8.08336654,32.1716924 8.333,32.16 L8.297,32.16 Z M11.997,32.16 C12.5039475,32.1638871 12.9185044,31.7569326 12.924,31.25 L12.924,30.03 C12.9075762,29.5301524 12.4976173,29.1334426 11.9975,29.1334426 C11.4973827,29.1334426 11.0874238,29.5301524 11.071,30.03 L11.071,31.25 C11.0734202,31.5002595 11.1776915,31.7387326 11.3597727,31.9104361 C11.5418539,32.0821396 11.7860289,32.1722532 12.036,32.16 L11.997,32.16 Z M15.697,32.16 C16.2035584,32.1633335 16.6175048,31.7565396 16.623,31.25 L16.623,30.03 C16.623,29.5185843 16.2084157,29.104 15.697,29.104 C15.1855843,29.104 14.771,29.5185843 14.771,30.03 L14.771,31.25 C14.7733714,31.5009906 14.8781899,31.740115 15.0611578,31.9119424 C15.2441257,32.0837698 15.4893551,32.1733798 15.74,32.16 L15.697,32.16 Z M8.29,38.22 C8.53369587,38.2232045 8.76855766,38.1288424 8.94229448,37.957923 C9.1160313,37.7870035 9.21422025,37.5537157 9.215,37.31 L9.215,36.1 C9.215,35.5885843 8.80041568,35.174 8.289,35.174 C7.77758432,35.174 7.363,35.5885843 7.363,36.1 L7.363,37.31 C7.3636287,37.5617346 7.46805512,37.8020649 7.6516464,37.9743 C7.83523769,38.1465351 8.08173761,38.2354244 8.333,38.22 L8.29,38.22 Z M11.99,38.22 C12.2339605,38.2234725 12.4691829,38.1292609 12.6432956,37.9583412 C12.8174083,37.7874215 12.9159569,37.5539829 12.917,37.31 L12.917,36.1 C12.9005762,35.6001524 12.4906173,35.2034426 11.9905,35.2034426 C11.4903827,35.2034426 11.0804238,35.6001524 11.064,36.1 L11.064,37.31 C11.0645952,37.5621046 11.1692938,37.8027681 11.3533321,37.9750673 C11.5373703,38.1473664 11.7844029,38.2359986 12.036,38.22 L11.99,38.22 Z M15.69,38.22 C15.9337884,38.2232032 16.1687524,38.1288724 16.3426475,37.9579819 C16.5165426,37.7870915 16.614954,37.5538072 16.616,37.31 L16.616,36.1 C16.616,35.5885843 16.2014157,35.174 15.69,35.174 C15.1785843,35.174 14.764,35.5885843 14.764,36.1 L14.764,37.31 C14.7645241,37.5628472 14.8697671,37.8041806 15.0547009,37.9766087 C15.2396347,38.1490368 15.4877347,38.2371521 15.74,38.22 L15.69,38.22 Z M8.283,44.29 C8.7893924,44.2933304 9.20305162,43.8863792 9.208,43.38 L9.208,42.17 C9.208,41.6585843 8.79341568,41.244 8.282,41.244 C7.77058432,41.244 7.356,41.6585843 7.356,42.17 L7.356,43.38 C7.35825861,43.632463 7.4641704,43.8729036 7.64891815,44.0449818 C7.8336659,44.2170601 8.08101259,44.3056525 8.333,44.29 L8.283,44.29 Z M11.983,44.29 C12.4899475,44.2938871 12.9045044,43.8869326 12.91,43.38 L12.91,42.17 C12.8935762,41.6701524 12.4836173,41.2734426 11.9835,41.2734426 C11.4833827,41.2734426 11.0734238,41.6701524 11.057,42.17 L11.057,43.38 C11.0592272,43.6328332 11.1654121,43.8736057 11.3506062,44.0457473 C11.5358003,44.2178889 11.7836781,44.3062247 12.036,44.29 L11.983,44.29 Z M15.683,44.29 C16.1895584,44.2933335 16.6035048,43.8865396 16.609,43.38 L16.609,42.17 C16.609,41.6585843 16.1944157,41.244 15.683,41.244 C15.1715843,41.244 14.757,41.6585843 14.757,42.17 L14.757,43.38 C14.7591605,43.6335762 14.8658912,43.875016 15.0519797,44.0472851 C15.2380682,44.2195542 15.4870105,44.3073743 15.74,44.29 L15.683,44.29 Z M41.608,29.73 C42.1149475,29.7338871 42.5295044,29.3269326 42.535,28.82 L42.535,27.61 C42.535,27.0985843 42.1204157,26.684 41.609,26.684 C41.0975843,26.684 40.683,27.0985843 40.683,27.61 L40.683,28.82 C40.6851776,29.0733901 40.791772,29.3146627 40.9776366,29.4868998 C41.1635013,29.6591369 41.4121772,29.7470863 41.665,29.73 L41.608,29.73 Z M41.608,35.8 C42.1149475,35.8038871 42.5295044,35.3969326 42.535,34.89 L42.535,33.67 C42.535,33.1585843 42.1204157,32.744 41.609,32.744 C41.0975843,32.744 40.683,33.1585843 40.683,33.67 L40.683,34.89 C40.6851776,35.1433901 40.791772,35.3846627 40.9776366,35.5568998 C41.1635013,35.7291369 41.4121772,35.8170863 41.665,35.8 L41.608,35.8 Z M41.608,41.86 C41.8519605,41.8634725 42.0871829,41.7692609 42.2612956,41.5983412 C42.4354083,41.4274215 42.5339569,41.1939829 42.535,40.95 L42.535,39.74 C42.535,39.2285843 42.1204157,38.814 41.609,38.814 C41.0975843,38.814 40.683,39.2285843 40.683,39.74 L40.683,40.95 C40.6831082,41.2040643 40.7890761,41.4465937 40.9754285,41.6192827 C41.1617808,41.7919717 41.4116622,41.8792009 41.665,41.86 L41.608,41.86 Z M41.608,47.93 C42.1149475,47.9338871 42.5295044,47.5269326 42.535,47.02 L42.535,45.81 C42.535,45.2985843 42.1204157,44.884 41.609,44.884 C41.0975843,44.884 40.683,45.2985843 40.683,45.81 L40.683,47.02 C40.6851776,47.2733901 40.791772,47.5146627 40.9776366,47.6868998 C41.1635013,47.8591369 41.4121772,47.9470863 41.665,47.93 L41.608,47.93 Z M25.251,14.26 C25.2455048,13.7534604 24.8315584,13.3466665 24.325,13.35 L16.917,13.35 C16.4144209,13.35 16.007,13.7574209 16.007,14.26 C16.007,14.7625791 16.4144209,15.17 16.917,15.17 L24.325,15.17 C24.5779895,15.1873743 24.8269318,15.0995542 25.0130203,14.9272851 C25.1991088,14.755016 25.3058395,14.5135762 25.308,14.26 L25.251,14.26 Z"/>
  </defs>
  <g fill="none" fill-rule="evenodd">
    <mask id="b" fill="white">
      <use xlink:href="#a"/>
    </mask>
    <use fill="#BEBEBE" xlink:href="#a"/>
    <circle cx="8" cy="18" r="32" fill="#A54686" mask="url(#b)"/>
  </g>
</svg>
