<?xml version="1.0" encoding="UTF-8"?>
<svg width="13px" height="10px" viewBox="0 0 13 10" version="1.1" xmlns="http://www.w3.org/2000/svg" xmlns:xlink="http://www.w3.org/1999/xlink">
    <!-- Generator: Sketch 44.1 (41455) - http://www.bohemiancoding.com/sketch -->
    <title>to-more</title>
    <desc>Created with Sketch.</desc>
    <defs></defs>
    <g id="Page-1" stroke="none" stroke-width="1" fill="none" fill-rule="evenodd">
        <g id="to-more" fill="#A54686">
            <path d="M8.76173469,0.236 C8.67632249,0.141262273 8.55988432,0.0879471858 8.43839286,0.0879471858 C8.31690139,0.0879471858 8.20046322,0.141262273 8.11505102,0.236 C8.02909557,0.327245199 7.9805691,0.452817556 7.9805691,0.584 C7.9805691,0.715182444 8.02909557,0.840754801 8.11505102,0.932 L11.4181122,4.50254545 L0.514030612,4.50254545 C0.263691973,4.5007271 0.0591110533,4.72114951 0.056377551,4.99563636 C0.0585530182,5.27143395 0.262498934,5.49408907 0.514030612,5.49527273 L11.4181122,5.49527273 L8.11505102,9.05818182 C8.00024299,9.18484871 7.95578461,9.36905387 7.99842291,9.54140901 C8.04106121,9.71376414 8.16431842,9.8480844 8.32176474,9.89377264 C8.47921107,9.93946089 8.64692667,9.88957598 8.76173469,9.76290909 L12.8507653,5.348 C12.9411193,5.25922521 12.9927493,5.13248283 12.9927493,4.99945455 C12.9927493,4.86642626 12.9411193,4.73968388 12.8507653,4.65090909 L8.76173469,0.236 Z" id="Forma_1_копия"></path>
        </g>
    </g>
</svg>