<svg width="163" height="144" viewBox="0 0 163 144" xmlns="http://www.w3.org/2000/svg" xmlns:xlink="http://www.w3.org/1999/xlink"><svg width="34" height="24" viewBox="-2 -2 34 24" id="bar" y="93.49000000000001" xmlns="http://www.w3.org/2000/svg"><title>bar</title><g fill-rule="nonzero" fill="#000"><path d="M30 1c0-.6-.5-1-1.25-1H1.25C.5 0 0 .4 0 1v2c0 .6.5 1 1.25 1h27.5C29.5 4 30 3.6 30 3V1zM30 9c0-.6-.5-1-1.25-1H1.25C.5 8 0 8.4 0 9v2c0 .6.5 1 1.25 1h27.5c.75 0 1.25-.4 1.25-1V9zM30 17c0-.6-.5-1-1.25-1H1.25C.5 16 0 16.4 0 17v2c0 .6.5 1 1.25 1h27.5c.75 0 1.25-.4 1.25-1v-2z"/></g></svg><svg viewBox="-2 -2 25.9 25.9" width="25.9" height="25.9" id="cross" y="117.49000000000001" xmlns="http://www.w3.org/2000/svg"><path d="M14.1 11.3c-.2-.2-.2-.5 0-.7l7.5-7.5c.2-.2.3-.5.3-.7s-.1-.5-.3-.7L20.2.3c-.2-.2-.5-.3-.7-.3-.3 0-.5.1-.7.3l-7.5 7.5c-.2.2-.5.2-.7 0L3.1.3C2.9.1 2.6 0 2.4 0s-.5.1-.7.3L.3 1.7c-.2.2-.3.5-.3.7s.1.5.3.7l7.5 7.5c.2.2.2.5 0 .7L.3 18.8c-.2.2-.3.5-.3.7s.1.5.3.7l1.4 1.4c.2.2.5.3.7.3s.5-.1.7-.3l7.5-7.5c.2-.2.5-.2.7 0l7.5 7.5c.2.2.5.3.7.3s.5-.1.7-.3l1.4-1.4c.2-.2.3-.5.3-.7s-.1-.5-.3-.7l-7.5-7.5z"/></svg><svg width="54" height="58" viewBox="-2 -2 54 58" id="estate" xmlns="http://www.w3.org/2000/svg"><defs><path id="ca" d="M49.073 52.18H47.53V4.55a.919.919 0 0 0-.926-.91H29.321a.92.92 0 0 0-.927.91v3.94h-1.852V4.55a.919.919 0 0 0-.925-.91H21.6V.91a.926.926 0 0 0-1.851 0v2.73H15.74a.92.92 0 0 0-.926.91v3.94h-2.778a.92.92 0 0 0-.926.91v7.59H3.394a.92.92 0 0 0-.926.91v34.28H.925a.91.91 0 0 0 0 1.82h48.148a.91.91 0 0 0 0-1.82zM16.666 5.46h8.025v3.03h-8.025V5.46zm-3.087 46.72h-.616v-1.52a.927.927 0 0 0-1.853 0v1.52h-.617v-3.03h3.086v3.03zm6.174-23.36v23.36h-4.321v-3.94a.914.914 0 0 0-.927-.91H9.567a.914.914 0 0 0-.926.91v3.94H4.32V18.81h15.433v10.01zm.925-11.83h-7.715v-6.68h15.431v17.6H21.6v-3.03h2.778a.91.91 0 1 0 0-1.82H21.6v-3.04h2.778a.91.91 0 0 0 0-1.82H21.6v-.3a.919.919 0 0 0-.922-.91zm16.358 35.19H21.6V29.73h15.432v22.45h.004zm8.643 0h-6.792V27.61a.926.926 0 0 0-1.851 0v.3h-1.852v-.3a.926.926 0 0 0-1.851 0v.3h-3.087V5.46h15.433v46.72zm-20.063-1.82a.919.919 0 0 0 .926-.91V32.46a.926.926 0 0 0-1.851 0v16.99a.92.92 0 0 0 .925.91zm3.7 0a.92.92 0 0 0 .925-.91V32.46a.926.926 0 1 0-1.852 0v16.99a.92.92 0 0 0 .932.91h-.005zm3.7 0a.919.919 0 0 0 .926-.91V32.46a.926.926 0 1 0-1.852 0v16.99a.92.92 0 0 0 .934.91h-.008zm1.234-38.83a.919.919 0 0 0 .926-.91V9.4a.926.926 0 0 0-1.851 0v1.22a.919.919 0 0 0 .933.91h-.008zm3.7 0a.919.919 0 0 0 .925-.91V9.4a.926.926 0 0 0-1.851 0v1.22a.919.919 0 0 0 .938.91h-.012zm3.7 0a.92.92 0 0 0 .927-.91V9.4a.926.926 0 1 0-1.852 0v1.22a.92.92 0 0 0 .94.91h-.015zm-7.407 6.06a.913.913 0 0 0 .926-.91v-1.21a.926.926 0 0 0-1.851 0v1.21a.913.913 0 0 0 .94.91h-.015zm3.7 0a.913.913 0 0 0 .925-.91v-1.21a.926.926 0 0 0-1.851 0v1.21a.913.913 0 0 0 .945.91h-.019zm3.7 0a.914.914 0 0 0 .927-.91v-1.21a.926.926 0 1 0-1.852 0v1.21a.913.913 0 0 0 .947.91h-.022zm-7.407 6.07a.913.913 0 0 0 .926-.91v-1.21a.926.926 0 0 0-1.851 0v1.21a.913.913 0 0 0 .947.91h-.022zm3.7 0a.913.913 0 0 0 .925-.91v-1.21a.926.926 0 0 0-1.851 0v1.21a.913.913 0 0 0 .952.91h-.026zm3.7 0a.914.914 0 0 0 .927-.91v-1.21a.926.926 0 1 0-1.852 0v1.21a.913.913 0 0 0 .954.91h-.029zM8.304 26.09a.919.919 0 0 0 .925-.91v-1.21a.926.926 0 1 0-1.852 0v1.21a.92.92 0 0 0 .956.91h-.029zm3.7 0a.92.92 0 0 0 .927-.91v-1.21a.927.927 0 0 0-1.853 0v1.21a.92.92 0 0 0 .958.91h-.032zm3.7 0a.92.92 0 0 0 .926-.91v-1.21a.926.926 0 1 0-1.852 0v1.21a.92.92 0 0 0 .962.91h-.036zm-7.407 6.07a.919.919 0 0 0 .925-.91v-1.22a.926.926 0 1 0-1.852 0v1.22a.92.92 0 0 0 .963.91h-.036zm3.7 0a.92.92 0 0 0 .927-.91v-1.22a.927.927 0 0 0-1.853 0v1.22a.92.92 0 0 0 .965.91h-.039zm3.7 0a.92.92 0 0 0 .926-.91v-1.22a.926.926 0 1 0-1.852 0v1.22a.92.92 0 0 0 .969.91h-.043zM8.29 38.22a.913.913 0 0 0 .925-.91V36.1a.926.926 0 1 0-1.852 0v1.21a.914.914 0 0 0 .97.91H8.29zm3.7 0a.914.914 0 0 0 .927-.91V36.1a.927.927 0 0 0-1.853 0v1.21a.914.914 0 0 0 .972.91h-.046zm3.7 0a.914.914 0 0 0 .926-.91V36.1a.926.926 0 1 0-1.852 0v1.21a.914.914 0 0 0 .976.91h-.05zm-7.407 6.07a.919.919 0 0 0 .925-.91v-1.21a.926.926 0 1 0-1.852 0v1.21a.92.92 0 0 0 .977.91h-.05zm3.7 0a.92.92 0 0 0 .927-.91v-1.21a.927.927 0 0 0-1.853 0v1.21a.92.92 0 0 0 .979.91h-.053zm3.7 0a.92.92 0 0 0 .926-.91v-1.21a.926.926 0 1 0-1.852 0v1.21a.92.92 0 0 0 .983.91h-.057zm25.925-14.56a.92.92 0 0 0 .927-.91v-1.21a.926.926 0 1 0-1.852 0v1.21a.92.92 0 0 0 .982.91h-.057zm0 6.07a.92.92 0 0 0 .927-.91v-1.22a.926.926 0 1 0-1.852 0v1.22a.92.92 0 0 0 .982.91h-.057zm0 6.06a.914.914 0 0 0 .927-.91v-1.21a.926.926 0 1 0-1.852 0v1.21a.913.913 0 0 0 .982.91h-.057zm0 6.07a.92.92 0 0 0 .927-.91v-1.21a.926.926 0 1 0-1.852 0v1.21a.92.92 0 0 0 .982.91h-.057zM25.251 14.26a.92.92 0 0 0-.926-.91h-7.408a.91.91 0 0 0 0 1.82h7.408a.92.92 0 0 0 .983-.91h-.057z"/></defs><g fill="none" fill-rule="evenodd"><mask id="cb" fill="#fff"><use xlink:href="#ca"/></mask><use fill="#BEBEBE" xlink:href="#ca"/><circle cx="8" cy="18" r="32" fill="#A54686" mask="url(#cb)"/></g></svg><svg viewBox="-2 -2 58 58" width="58" height="58" id="filter-icon" x="54" xmlns="http://www.w3.org/2000/svg"><g fill="#c7cac7"><path d="M6 0a1 1 0 0 0-1 1v40a1 1 0 1 0 2 0V1a1 1 0 0 0-1-1zM48 12a1 1 0 0 0-1 1v40a1 1 0 1 0 2 0V13a1 1 0 0 0-1-1zM27 0a1 1 0 0 0-1 1v19a1 1 0 1 0 2 0V1a1 1 0 0 0-1-1zM27 32a1 1 0 0 0-1 1v20a1 1 0 1 0 2 0V33a1 1 0 0 0-1-1z"/></g><circle cx="6" cy="47" r="6" fill="#f48220"/><circle cx="26.793" cy="26.793" r="6.207" fill="#f48220"/><circle cx="48" cy="7" r="6" fill="#f48220"/></svg><svg viewBox="-2 -2 35.49 35.49" width="35.49" height="35.49" id="go-to-map" y="58" xmlns="http://www.w3.org/2000/svg"><path d="M21.205 5.007a1.112 1.112 0 0 0-1.587 0 1.12 1.12 0 0 0 0 1.571l8.047 8.047H1.111A1.106 1.106 0 0 0 0 15.737c0 .619.492 1.127 1.111 1.127h26.554l-8.047 8.032c-.429.444-.429 1.159 0 1.587a1.112 1.112 0 0 0 1.587 0l9.952-9.952a1.093 1.093 0 0 0 0-1.571l-9.952-9.953z" fill="#a54686"/></svg><svg viewBox="-2 -2 254.31 254.31" width="34" height="34" id="magnifier" x="106.47" y="58" xmlns="http://www.w3.org/2000/svg"><path d="M244.186 214.604l-54.379-54.378c-.289-.289-.628-.491-.93-.76 10.7-16.231 16.945-35.66 16.945-56.554C205.822 46.075 159.747 0 102.911 0S0 46.075 0 102.911c0 56.835 46.074 102.911 102.91 102.911 20.895 0 40.323-6.245 56.554-16.945.269.301.47.64.759.929l54.38 54.38c8.169 8.168 21.413 8.168 29.583 0 8.168-8.169 8.168-21.413 0-29.582zm-141.275-44.458c-37.134 0-67.236-30.102-67.236-67.235 0-37.134 30.103-67.236 67.236-67.236 37.132 0 67.235 30.103 67.235 67.236s-30.103 67.235-67.235 67.235z" fill="#FFF" fill-rule="evenodd" clip-rule="evenodd"/></svg><svg width="51" height="58" viewBox="-2 -2 51 58" id="news" x="112" xmlns="http://www.w3.org/2000/svg"><defs><path id="ga" d="M46.134 3.67h-21.27v-.52A3.162 3.162 0 0 0 21.693 0H18a3.162 3.162 0 0 0-3.17 3.15v.52H9.7a.859.859 0 0 0-.865.86v6.93H1.861a.866.866 0 0 0-.865.86v32.23c0 .02 0 .03.007.04a.127.127 0 0 0 .01.04.448.448 0 0 0 .011.05c0 .01.008.02.013.03.005.01.01.03.015.05.005.02.011.02.016.03.005.01.013.03.02.04l.02.03a.12.12 0 0 0 .024.04.138.138 0 0 0 .025.04l.025.03.053.06 8.762 8.72c.017.02.037.037.06.05a.318.318 0 0 0 .068.06c.014.003.026.01.036.02.014.003.026.01.036.02.014.003.028.01.038.02.013 0 .025.01.039.01.014 0 .025.01.038.02.013.01.027.01.042.01a.055.055 0 0 0 .038.01.07.07 0 0 0 .044.01.071.071 0 0 0 .044.01h.039a.248.248 0 0 0 .085.01h25.364a.865.865 0 0 0 .864-.86v-3.73h9.281a.859.859 0 0 0 .865-.86V4.53a.859.859 0 0 0-.844-.86zm-29.571-.52a1.436 1.436 0 0 1 1.441-1.43h3.689a1.437 1.437 0 0 1 1.442 1.43v.52h-6.572v-.52zm0 10.03h4.266v4.25h-4.266v-4.25zm3.975 5.97a1.46 1.46 0 0 1-1.15.57h-1.383a1.459 1.459 0 0 1-1.151-.57h3.684zm-9.97-13.76h4.266v6.07h-4.266V5.39zm-.807 43.16v2.51l-5.81-5.77h5.81v3.26zm25.364 0v3.73H11.491v-7.85a.86.86 0 0 0-.865-.86h-7.9V13.18h12.1v4.25H7.851a.86.86 0 1 0 0 1.72h7.1a3.172 3.172 0 0 0 3.05 2.29h1.383a3.171 3.171 0 0 0 3.049-2.29h8.019a.86.86 0 1 0 0-1.72h-7.9v-4.25h12.567v35.37h.006zm10.145-.86h-8.416V12.32a.866.866 0 0 0-.865-.86H22.558V7.28a.865.865 0 0 0-1.729 0v4.18h-4.266V5.39H45.27v42.3zM30.455 24.76h-22.6a.86.86 0 1 0 0 1.72h22.6a.86.86 0 1 0 0-1.72zm0 7.34h-22.6a.86.86 0 1 0 0 1.72h22.6a.86.86 0 1 0 0-1.72zm0 7.34h-22.6a.86.86 0 1 0 0 1.72h22.6a.86.86 0 1 0 0-1.72z"/></defs><g fill="none" fill-rule="evenodd"><mask id="gb" fill="#fff"><use xlink:href="#ga"/></mask><use fill="#BEBEBE" xlink:href="#ga"/><circle cx="8" cy="9" r="32" fill="#0095DA" mask="url(#gb)"/></g></svg><svg viewBox="-2 -2 477.81 477.81" width="25" height="25" id="phone" x="25.9" y="117.49000000000001" xmlns="http://www.w3.org/2000/svg"><g fill="#FFF"><path d="M374.456 293.506c-9.7-10.1-21.4-15.5-33.8-15.5-12.3 0-24.1 5.3-34.2 15.4l-31.6 31.5c-2.6-1.4-5.2-2.7-7.7-4-3.6-1.8-7-3.5-9.9-5.3-29.6-18.8-56.5-43.3-82.3-75-12.5-15.8-20.9-29.1-27-42.6 8.2-7.5 15.8-15.3 23.2-22.8 2.8-2.8 5.6-5.7 8.4-8.5 21-21 21-48.2 0-69.2l-27.3-27.3c-3.1-3.1-6.3-6.3-9.3-9.5-6-6.2-12.3-12.6-18.8-18.6-9.7-9.6-21.3-14.7-33.5-14.7s-24 5.1-34 14.7l-.2.2-34 34.3c-12.8 12.8-20.1 28.4-21.7 46.5-2.4 29.2 6.2 56.4 12.8 74.2 16.2 43.7 40.4 84.2 76.5 127.6 43.8 52.3 96.5 93.6 156.7 122.7 23 10.9 53.7 23.8 88 26 2.1.1 4.3.2 6.3.2 23.1 0 42.5-8.3 57.7-24.8.1-.2.3-.3.4-.5 5.2-6.3 11.2-12 17.5-18.1 4.3-4.1 8.7-8.4 13-12.9 9.9-10.3 15.1-22.3 15.1-34.6 0-12.4-5.3-24.3-15.4-34.3l-54.9-55.1zm35.8 105.3c-.1 0-.1.1 0 0-3.9 4.2-7.9 8-12.2 12.2-6.5 6.2-13.1 12.7-19.3 20-10.1 10.8-22 15.9-37.6 15.9-1.5 0-3.1 0-4.6-.1-29.7-1.9-57.3-13.5-78-23.4-56.6-27.4-106.3-66.3-147.6-115.6-34.1-41.1-56.9-79.1-72-119.9-9.3-24.9-12.7-44.3-11.2-62.6 1-11.7 5.5-21.4 13.8-29.7l34.1-34.1c4.9-4.6 10.1-7.1 15.2-7.1 6.3 0 11.4 3.8 14.6 7l.3.3c6.1 5.7 11.9 11.6 18 17.9 3.1 3.2 6.3 6.4 9.5 9.7l27.3 27.3c10.6 10.6 10.6 20.4 0 31-2.9 2.9-5.7 5.8-8.6 8.6-8.4 8.6-16.4 16.6-25.1 24.4-.2.2-.4.3-.5.5-8.6 8.6-7 17-5.2 22.7l.3.9c7.1 17.2 17.1 33.4 32.3 52.7l.1.1c27.6 34 56.7 60.5 88.8 80.8 4.1 2.6 8.3 4.7 12.3 6.7 3.6 1.8 7 3.5 9.9 5.3.4.2.8.5 1.2.7 3.4 1.7 6.6 2.5 9.9 2.5 8.3 0 13.5-5.2 15.2-6.9l34.2-34.2c3.4-3.4 8.8-7.5 15.1-7.5 6.2 0 11.3 3.9 14.4 7.3l.2.2 55.1 55.1c10.3 10.2 10.3 20.7.1 31.3zM256.056 112.706c26.2 4.4 50 16.8 69 35.8s31.3 42.8 35.8 69c1.1 6.6 6.8 11.2 13.3 11.2.8 0 1.5-.1 2.3-.2 7.4-1.2 12.3-8.2 11.1-15.6-5.4-31.7-20.4-60.6-43.3-83.5s-51.8-37.9-83.5-43.3c-7.4-1.2-14.3 3.7-15.6 11s3.5 14.4 10.9 15.6zM473.256 209.006c-8.9-52.2-33.5-99.7-71.3-137.5s-85.3-62.4-137.5-71.3c-7.3-1.3-14.2 3.7-15.5 11-1.2 7.4 3.7 14.3 11.1 15.6 46.6 7.9 89.1 30 122.9 63.7 33.8 33.8 55.8 76.3 63.7 122.9 1.1 6.6 6.8 11.2 13.3 11.2.8 0 1.5-.1 2.3-.2 7.3-1.1 12.3-8.1 11-15.4z"/></g></svg><svg viewBox="-2 -2 35.49 35.49" width="35.49" height="35.49" id="slider-promo-next" x="70.98" y="58" xmlns="http://www.w3.org/2000/svg"><path d="M21.205 5.007a1.112 1.112 0 0 0-1.587 0 1.12 1.12 0 0 0 0 1.571l8.047 8.047H1.111A1.106 1.106 0 0 0 0 15.737c0 .619.492 1.127 1.111 1.127h26.554l-8.047 8.032c-.429.444-.429 1.159 0 1.587a1.112 1.112 0 0 0 1.587 0l9.952-9.952a1.093 1.093 0 0 0 0-1.571l-9.952-9.953z" fill="#1e201d"/></svg><svg viewBox="-2 -2 35.49 35.49" width="35.49" height="35.49" id="slider-promo-prev" x="35.49" y="58" xmlns="http://www.w3.org/2000/svg"><path d="M10.273 5.009a1.112 1.112 0 0 1 1.587 0 1.12 1.12 0 0 1 0 1.571l-8.047 8.047h26.554c.619 0 1.127.492 1.127 1.111s-.508 1.127-1.127 1.127H3.813l8.047 8.032c.429.444.429 1.159 0 1.587a1.112 1.112 0 0 1-1.587 0L.321 16.532a1.12 1.12 0 0 1 0-1.571l9.952-9.952z" fill="#1e201d"/></svg><svg width="17" height="14" viewBox="-2 -2 17 14" id="to-more" x="140.47" y="58" xmlns="http://www.w3.org/2000/svg"><title>to-more</title><path d="M8.762.236a.436.436 0 0 0-.324-.148.436.436 0 0 0-.323.148.508.508 0 0 0-.134.348c0 .131.048.257.134.348l3.303 3.57H.514c-.25-.001-.455.22-.458.494.003.275.206.498.458.5h10.904L8.115 9.057a.534.534 0 0 0-.117.483.48.48 0 0 0 .324.353.43.43 0 0 0 .44-.131l4.089-4.415a.49.49 0 0 0 .142-.349.49.49 0 0 0-.142-.348L8.76.236z" fill="#A54686" fill-rule="evenodd"/></svg></svg>