<?xml version="1.0" encoding="UTF-8"?>
<svg width="1688px" height="468px" viewBox="0 0 1688 468" version="1.1" xmlns="http://www.w3.org/2000/svg" xmlns:xlink="http://www.w3.org/1999/xlink">
    <!-- Generator: Sketch 44.1 (41455) - http://www.bohemiancoding.com/sketch -->
    <title>EstateGuru</title>
    <desc>Created with Sketch.</desc>
    <defs>
        <linearGradient x1="-0.0165428236%" y1="49.9909508%" x2="100.000039%" y2="49.9909508%" id="linearGradient-1">
            <stop stop-color="#2B8736" offset="0%"></stop>
            <stop stop-color="#3FAB3D" offset="100%"></stop>
        </linearGradient>
        <linearGradient x1="50.0277512%" y1="74.630949%" x2="50.0277512%" y2="2.83012221%" id="linearGradient-2">
            <stop stop-color="#E97414" offset="0%"></stop>
            <stop stop-color="#EB9000" offset="100%"></stop>
        </linearGradient>
        <linearGradient x1="-0.00734463277%" y1="50.0037283%" x2="100.009934%" y2="50.0037283%" id="linearGradient-3">
            <stop stop-color="#BF448A" offset="0%"></stop>
            <stop stop-color="#D01E6C" offset="100%"></stop>
        </linearGradient>
    </defs>
    <g id="Page-1" stroke="none" stroke-width="1" fill="none" fill-rule="evenodd">
        <g id="EstateGuru" fill-rule="nonzero">
            <g id="Group" transform="translate(453.000000, 137.000000)" fill="#000000">
                <polygon id="Shape" points="0.9 199.2 110.8 199.2 110.8 176.1 26.6 176.1 26.6 112.6 103.3 112.6 103.3 89.5 26.6 89.5 26.6 25.3 110.8 25.3 110.8 2.2 0.9 2.2"></polygon>
                <path d="M211.3,121.4 L168.5,103.8 C162.4,101.3 155,96.3 155,87.1 C155,75.9 166,68.1 181.8,68.1 C198.6,68.1 209.9,77.3 209.9,90.9 L209.9,100.4 L234.9,100.4 L234.9,91.4 C234.9,64.5 213.2,45.8 182.1,45.8 C151.8,45.8 130.6,63.1 130.6,87.9 C130.6,104.6 140.3,118.4 157.1,125.6 L200.1,143 C205.1,145.1 213.6,150.1 213.6,159.8 C213.6,170.8 201.2,178.8 184.1,178.8 C165.7,178.8 153.3,169.6 153.3,156 L153.3,146.5 L128.6,146.5 L128.6,155.5 C128.6,182.4 151.4,201.1 184.1,201.1 C215.8,201.1 238,183.8 238,159 C238.2,142.4 228.2,128.3 211.3,121.4 Z" id="Shape"></path>
                <path d="M301.2,16.3 L276.2,16.3 L276.2,47.6 L245.2,47.6 L245.2,69.9 L276.2,69.9 L276.2,164.8 C276.2,184.7 293.9,199.2 318.3,199.2 L335.3,199.2 L335.3,176.9 L318.3,176.9 C308.2,176.9 301.1,171.9 301.1,164.8 L301.1,69.9 L335.3,69.9 L335.3,47.6 L301.1,47.6 L301.1,16.3 L301.2,16.3 Z" id="Shape"></path>
                <path d="M409.2,45.7 C376.8,45.7 354.2,64.7 354.2,91.8 L354.2,103.7 L379,103.7 L379,91 C379,77.4 391.4,68 409.3,68 C427,68 439.3,77.5 439.3,91 L439.3,108.7 L406.9,110.3 C373,112.1 351.9,128.1 351.9,151.9 L351.9,160.2 C351.9,184.6 371.5,201 400.7,201 C414.9,201 428.4,196.6 439.2,188.7 L439.2,199.1 L463.9,199.1 L463.9,91.9 C463.9,64.7 441.4,45.7 409.2,45.7 Z M405.2,178.8 C387.7,178.8 376.8,171.7 376.8,160.3 L376.8,151.2 C376.8,136.6 396.1,133.3 407.6,132.7 L439.2,131.1 L439.2,156.8 C439.2,169.3 424.6,178.8 405.2,178.8 Z" id="Shape"></path>
                <path d="M530.7,16.3 L505.7,16.3 L505.7,47.6 L474.7,47.6 L474.7,69.9 L505.7,69.9 L505.7,164.8 C505.7,184.7 523.4,199.2 547.8,199.2 L564.8,199.2 L564.8,176.9 L547.8,176.9 C537.7,176.9 530.6,171.9 530.6,164.8 L530.6,69.9 L564.8,69.9 L564.8,47.6 L530.6,47.6 L530.6,16.3 L530.7,16.3 Z" id="Shape"></path>
                <path d="M642.2,45.7 C608.6,45.7 585.1,64.7 585.1,91.8 L585.1,154.8 C585.1,182 608.6,200.9 642.2,200.9 C675.8,200.9 699.3,181.9 699.3,154.8 L699.3,145 L674.3,145 L674.3,155.6 C674.3,169.2 661.1,178.6 642.2,178.6 C623.1,178.6 609.8,169.1 609.8,155.6 L609.8,134 L699.3,134 L699.3,91.9 C699.3,64.7 675.8,45.7 642.2,45.7 Z M642.2,68 C661.1,68 674.3,77.5 674.3,91 L674.3,111.6 L609.8,111.6 L609.8,91 C609.8,77.5 623.1,68 642.2,68 Z" id="Shape"></path>
                <path d="M792.6,0.3 C753.5,0.3 726.2,22.6 726.2,54.5 L726.2,146.9 C726.2,178.8 753.5,201.1 792.6,201.1 C831.6,201.1 858.8,178.8 858.8,146.9 L858.8,92.2 L789.8,92.2 L789.8,115.3 L833.3,115.3 L833.3,147.7 C833.3,165.4 816.6,177.7 792.6,177.7 C768.6,177.7 751.9,165.4 751.9,147.7 L751.9,53.7 C751.9,36 768.6,23.7 792.6,23.7 C816.6,23.7 833.3,36 833.3,53.7 L833.3,68.9 L858.8,68.9 L858.8,54.6 C858.8,22.6 831.5,0.3 792.6,0.3 Z" id="Shape"></path>
                <path d="M975.1,158 C974.4,170.2 961.2,178.8 943,178.8 C925.2,178.8 912.7,170.4 912.7,158.4 L912.7,47.6 L887.7,47.6 L887.7,158.4 C887.7,183.5 908.7,201.1 938.6,201.1 C952.3,201.1 964.9,197.1 975,189.7 L975,199.2 L999.7,199.2 L999.7,47.6 L975,47.6 L975,158 L975.1,158 Z" id="Shape"></path>
                <path d="M1056.2,60.6 L1056.2,47.6 L1031.2,47.6 L1031.2,199.2 L1056.2,199.2 L1056.2,97.2 C1056.2,80.6 1073.7,69.1 1098.8,69.1 L1103.8,69.1 L1103.8,45.7 L1098.8,45.7 C1082.8,45.7 1067.9,51 1056.2,60.6 Z" id="Shape"></path>
                <path d="M1209.6,47.6 L1209.6,158 C1208.9,170.2 1195.7,178.8 1177.5,178.8 C1159.7,178.8 1147.2,170.4 1147.2,158.4 L1147.2,47.6 L1122.2,47.6 L1122.2,158.4 C1122.2,183.5 1143.2,201.1 1173.1,201.1 C1186.8,201.1 1199.4,197.1 1209.5,189.7 L1209.5,199.2 L1234.2,199.2 L1234.2,47.6 L1209.6,47.6 Z" id="Shape"></path>
            </g>
            <polygon id="Shape" fill="url(#linearGradient-1)" points="340.5 373.7 84.8 467.4 84.8 378.1 256.9 314.9"></polygon>
            <polygon id="Shape" fill="url(#linearGradient-2)" points="340.5 151.5 340.5 373.7 256.9 314.9 256.9 95.5"></polygon>
            <polygon id="Shape" fill="url(#linearGradient-3)" points="212.6 57.8 126.5 0.7 0.2 189.2 0.2 410.3 84.8 467.4 84.8 378.1 84.8 249.4 114.4 204.9 114.4 144.6 150.6 92.4 150.6 150.8 164.1 130.5 164.1 130.5"></polygon>
        </g>
    </g>
</svg>