<?xml version="1.0" encoding="UTF-8"?>
<svg width="50px" height="62px" viewBox="0 0 50 62" version="1.1" xmlns="http://www.w3.org/2000/svg" xmlns:xlink="http://www.w3.org/1999/xlink">
    <!-- Generator: Sketch 44.1 (41455) - http://www.bohemiancoding.com/sketch -->
    <title>Group</title>
    <desc>Created with Sketch.</desc>
    <defs></defs>
    <g id="Page-1" stroke="none" stroke-width="1" fill="none" fill-rule="evenodd">
        <g id="Group" fill-rule="nonzero">
            <g id="marker_eg" fill="#A54686">
                <path d="M24.7223988,0 C18.1565384,0.0090706534 11.8632026,2.62605092 7.22685651,7.27523368 C2.59051046,11.9244164 -0.00905947827,18.2249639 2.37234643e-05,24.7908243 C2.37234643e-05,37.2094602 15.401088,53.5541453 21.8964257,59.8881385 C23.4796287,61.4393034 26.0038139,61.4678649 27.6217103,59.9529208 C34.1500503,53.8413873 49.4459962,38.1237456 49.4459962,24.789602 C49.4635596,11.1171832 38.3948158,0.0188891408 24.7223988,0 Z" id="Forma_1_копия_11"></path>
            </g>
            <g id="home" transform="translate(8.000000, 6.000000)" fill="#FFFFFF">
                <path d="M28.6310294,32.5922903 L5.33852941,32.5922903 C5.05441176,32.5922903 4.82382353,32.3538387 4.82382353,32.0600323 L4.82382353,12.2642903 C4.82382353,11.9704839 5.05441176,11.7320323 5.33852941,11.7320323 C5.62264706,11.7320323 5.85323529,11.9704839 5.85323529,12.2642903 L5.85323529,31.5277742 L28.1163235,31.5277742 L28.1163235,12.2642903 C28.1163235,11.9704839 28.3469118,11.7320323 28.6310294,11.7320323 C28.9151471,11.7320323 29.1457353,11.9704839 29.1457353,12.2642903 L29.1457353,32.0600323 C29.1457353,32.3538387 28.9161765,32.5922903 28.6310294,32.5922903 Z" id="Shape"></path>
                <path d="M33.4558824,17.556 C33.3292647,17.556 33.2016176,17.5080968 33.1017647,17.4112258 L16.9842647,1.67129032 L0.868823529,17.4101613 C0.661911765,17.6124194 0.333529412,17.6017742 0.141029412,17.388871 C-0.0535294118,17.1749032 -0.0452941176,16.8385161 0.161617647,16.6362581 L16.6301471,0.552483871 C16.8288235,0.357677419 17.1386765,0.358741935 17.3383824,0.552483871 L33.81,16.6362581 C34.0158824,16.8385161 34.0251471,17.1749032 33.8305882,17.388871 C33.7286765,17.4995806 33.5927941,17.556 33.4558824,17.556 Z" id="Shape"></path>
                <path d="M21.0936765,32.5922903 L12.8779412,32.5922903 C12.5938235,32.5922903 12.3632353,32.3538387 12.3632353,32.0600323 L12.3632353,20.5249355 C12.3632353,20.231129 12.5938235,19.9926774 12.8779412,19.9926774 L21.0936765,19.9926774 C21.3777941,19.9926774 21.6083824,20.231129 21.6083824,20.5249355 L21.6083824,32.0600323 C21.6083824,32.3538387 21.3777941,32.5922903 21.0936765,32.5922903 Z M13.3926471,31.5277742 L20.5789706,31.5277742 L20.5789706,21.0571935 L13.3926471,21.0571935 L13.3926471,31.5277742 Z" id="Shape"></path>
            </g>
        </g>
    </g>
</svg>